<?xml version="1.0" encoding="iso-8859-1"?>
<!-- Uploaded to: SVG Repo, www.svgrepo.com, Generator: SVG Repo Mixer Tools -->
<svg fill="#000000" height="800px" width="800px" version="1.1" id="Layer_1" xmlns="http://www.w3.org/2000/svg" xmlns:xlink="http://www.w3.org/1999/xlink" 
	 viewBox="0 0 483 483" xml:space="preserve">
<g>
	<g>
		<path d="M475.5,137.8c-4.1,0-7.5,3.4-7.5,7.5v5L249,20.1V7.5c0-4.1-3.4-7.5-7.5-7.5c-4.1,0-7.5,3.4-7.5,7.5v12.6L15,150.3v-5
			c0-4.1-3.4-7.5-7.5-7.5S0,141.2,0,145.3v61.1v42.9v3.9v5.2v65c0,2.5,1.3,4.9,3.4,6.3l234,152.1c1.2,0.8,2.7,1.2,4.1,1.2
			s2.8-0.4,4.1-1.2l234-152.1c2.1-1.4,3.4-3.7,3.4-6.3v-65v-5.2v-3.9v0v-42.9v-61.1C483,141.2,479.6,137.8,475.5,137.8z M248.9,37.7
			l212.5,126.2l-20.2,13.5L248.9,63.1V37.7z M405.2,219.4l19.6,11.8L249.1,348.4v-24.9H249L405.2,219.4z M404.8,201.6L249,107.3
			V80.5l178.4,106L404.8,201.6z M438.9,239.8l19.6,11.8L249,391.2v-24.8L438.9,239.8z M438.5,222L438.5,222l-19.6-11.8l22.7-15.2
			l19.7,11.7L438.5,222z M241.5,120.3L391,210.8l-142,94.7v-21.1c0-4.1-3.4-7.5-7.5-7.5c-4.1,0-7.5,3.4-7.5,7.5v21.1L92,210.8
			L241.5,120.3z M64,210.2L44.5,222l-22.9-15.3L41.3,195L64,210.2z M55.6,186.5L234,80.5v26.8L78.2,201.6L55.6,186.5z M234,366.4
			v24.9L24.5,251.6l19.6-11.8L234,366.4z M58.3,231.2l19.6-11.8L234,323.5v24.9L58.3,231.2z M234,37.6V63L41.7,177.3l-20.2-13.5
			L234,37.6z M15,177.5l12.5,8.3L15,193.2V177.5z M15,220.4l15.3,10.2L15,239.9V220.4z M468,319.3L241.5,466.6L15,319.3v-56
			l222.3,148.2c1.3,0.8,2.7,1.3,4.2,1.3s2.9-0.4,4.2-1.3L468,263.3V319.3z M468,239.9l-15.3-9.3l15.3-10.2V239.9z M468,193.2
			l-12.5-7.4l12.5-8.3V193.2z"/>
	</g>
</g>
</svg>