<?xml version="1.0" encoding="iso-8859-1"?>
<!-- Uploaded to: SVG Repo, www.svgrepo.com, Generator: SVG Repo Mixer Tools -->
<svg fill="#000000" height="800px" width="800px" version="1.1" id="Capa_1" xmlns="http://www.w3.org/2000/svg" xmlns:xlink="http://www.w3.org/1999/xlink" 
	 viewBox="0 0 368.973 368.973" xml:space="preserve">
<g>
	<g id="Layer_5_5_">
		<g>
			<path d="M239.378,171.003v-57.501c0,0-0.392-6.823-5.892-6.823c-0.938,0-1.313,0-2.25,0c-5.75,0-5.858,6.324-5.858,6.324v57.652
				c0,2.098-1.274,2.932-1.934,3.479c-11.023,9.147-25.89,29.792-25.89,46.794c0,22.562,15.591,37.275,34.824,37.275
				c19.232,0,34.824-14.714,34.824-37.275c0-16.89-15.34-37.378-26.177-46.618C240.463,173.831,239.378,172.795,239.378,171.003z"/>
			<path d="M295.638,0H73.335c-9.35,0-17,7.649-17,17v334.973c0,9.351,7.65,17,17,17h176.867c9.35,0,17-7.649,17-17v-2.99
				c0-9.351-7.65-17-17-17H119.768c-9.35,0-17-7.649-17-17c0,0,0-49.362,0-65.816c0-8,7.719-8.118,7.719-8.118s8.906,0,11.875,0
				c5.75,0,5.177,5.326,5.177,5.326v2.414c0,3.3,2.7,6,6,6h9.049c3.3,0,6-2.7,6-6v-7.74v-74.687v-7.74c0-3.3-2.7-6-6-6h-9.049
				c-3.3,0-6,2.7-6,6v2.882c0,0,0.823,4.858-5.302,4.858c-3.021,0-12.083,0-12.083,0s-7.386-0.051-7.386-7.195
				c0-13.872,0-55.487,0-55.487c0-9.35,7.65-17,17-17h175.87c9.35,0,17-7.65,17-17V17C312.638,7.649,304.988,0,295.638,0z"/>
		</g>
	</g>
</g>
</svg>