<?xml version="1.0" encoding="utf-8"?>

<!DOCTYPE svg PUBLIC "-//W3C//DTD SVG 1.1//EN" "http://www.w3.org/Graphics/SVG/1.1/DTD/svg11.dtd">
<!-- Uploaded to: SVG Repo, www.svgrepo.com, Generator: SVG Repo Mixer Tools -->
<svg version="1.1" id="_x32_" xmlns="http://www.w3.org/2000/svg" xmlns:xlink="http://www.w3.org/1999/xlink" 
	 width="800px" height="800px" viewBox="0 0 512 512"  xml:space="preserve">
<style type="text/css">
<![CDATA[
	.st0{fill:#000000;}
]]>
</style>
<g>
	<path class="st0" d="M454.938,54.292c-14.125-14.234-33.328-22.281-53.406-22.281h-7.875H264.313h-16.625H118.344h-7.875
		c-20.078,0-39.281,8.047-53.406,22.281C11.719,107.214,0,173.917,0,255.371c0,91,36.609,171.343,106.016,219.687
		c59.5,30.234,136.172-86.234,31.828-140.937c-38.859-20.359-40.672-43.281-40.672-76.313S123.953,197.98,157,197.98h90.688h16.625
		H355c33.047,0,59.828,26.797,59.828,59.828s-1.813,55.953-40.672,76.313c-104.344,54.703-27.672,171.171,31.828,140.937
		C475.391,426.714,512,346.371,512,255.371C512,173.917,500.281,107.214,454.938,54.292z M340.031,125.636
		c0,6.906-5.609,12.531-12.531,12.531h-143c-6.922,0-12.531-5.625-12.531-12.531V97.621c0-6.922,5.609-12.531,12.531-12.531h143
		c6.922,0,12.531,5.609,12.531,12.531V125.636z"/>
</g>
</svg>